<svg xmlns="http://www.w3.org/2000/svg" width="1024" height="1024" viewBox="0 0 1024 1024" version="1.1"><path d="M 257.400 114.864 C 251.925 118.886, 249.916 121.284, 243.670 131.254 C 234.074 146.573, 224.039 173.014, 216.607 202.561 C 210.082 228.499, 209.792 231.457, 209.265 277.456 L 208.784 319.411 204.026 326.462 C 180.306 361.612, 156.048 426.505, 146.069 481.500 C 139.724 516.464, 138.861 524.689, 138.290 555.566 C 137.679 588.703, 138.772 607.212, 142.554 627.710 C 153.570 687.423, 176.478 735.772, 214.771 780.127 C 264.377 837.586, 344.178 880.950, 419.866 891.574 C 457.411 896.845, 505.808 894.796, 541.217 886.438 C 584.736 876.166, 616.113 863.125, 652.216 840.305 C 691.187 815.672, 725.038 783.983, 757.225 742 C 809.816 673.404, 839.167 585.825, 841.681 490 C 842.319 465.693, 841.254 449.666, 838.016 434.831 C 835.814 424.741, 833.944 420.664, 830.473 418.391 C 828.348 416.998, 827.537 416.949, 824.871 418.053 C 820.437 419.890, 819.216 423.727, 818.001 439.648 C 812.955 505.749, 794.613 560.049, 759.627 612.452 C 744.309 635.395, 733.028 649.075, 712.823 669.204 C 679.076 702.826, 637.551 731.894, 589.500 755.532 C 492.935 803.035, 400.052 813.293, 352.762 781.677 C 340.562 773.520, 332.689 765.168, 327.681 755.071 L 323.500 746.641 323.564 729.071 C 323.628 711.569, 323.643 711.458, 327.260 700.829 C 333.901 681.315, 341.535 669.263, 356.922 654 C 377.152 633.934, 403.599 620.195, 433.871 614.026 C 443.619 612.040, 463.685 610.772, 505.500 609.500 C 543.005 608.360, 558.392 606.582, 579.875 600.910 C 634.979 586.360, 675.046 551.146, 688.549 505.400 C 693.855 487.423, 692.713 465.313, 685.723 450.668 C 681.627 442.090, 677.890 437.285, 663.127 421.619 C 646.355 403.822, 644.739 400.344, 640.009 371.886 C 636.652 351.690, 632.351 337.693, 624.527 321.500 C 619.436 310.964, 610.076 295.738, 603.760 287.719 C 600.309 283.336, 600.249 284.209, 605.368 264.500 C 611.477 240.977, 612.458 232.129, 612.464 200.500 C 612.468 177.590, 612.134 170.682, 610.629 162.500 C 606.361 139.297, 602.170 127.270, 596.516 122 C 594.292 119.927, 592.867 119.508, 588.167 119.545 C 581.226 119.601, 572.981 123.689, 559.572 133.722 C 543.120 146.031, 512.819 176.876, 494.812 199.643 C 489.965 205.772, 485.430 211.005, 484.734 211.272 C 484.038 211.539, 480.550 211.154, 476.984 210.417 C 457.004 206.287, 404.919 205.059, 387.250 208.302 C 372.707 210.971, 373.592 211.292, 364.860 200.202 C 337.775 165.805, 288.499 120.738, 270.230 113.655 C 264.271 111.345, 261.885 111.570, 257.400 114.864 M 263.216 152.750 C 251.578 177.488, 243.029 207.472, 238.336 240 C 235.847 257.256, 235.896 297.495, 238.426 314 C 239.396 320.325, 240.422 329.341, 240.707 334.035 C 241.372 345.002, 240.464 346.087, 232.901 343.367 L 227.764 341.520 224.828 345.010 C 223.214 346.930, 217.445 357.500, 212.009 368.500 C 186.046 421.033, 172.461 469.492, 166.871 529.500 C 165.302 546.353, 165.307 588.157, 166.880 603.500 C 171.881 652.270, 185.702 691.566, 211.621 730.713 C 260.119 803.962, 348.842 857.041, 436 864.950 C 453.303 866.520, 490.434 866.263, 504.889 864.474 C 575.698 855.707, 644.910 820.873, 699.549 766.500 C 714.878 751.246, 719.700 745.962, 730.117 733 C 764.925 689.691, 790.337 640.145, 806.067 584.919 C 810.667 568.770, 808.597 568.800, 800.587 585 C 790.352 605.701, 772.013 635.542, 763.500 645.348 C 762.950 645.982, 760.496 649.189, 758.047 652.475 C 745.640 669.126, 715.791 699.901, 696 716.447 C 637.456 765.391, 559.632 804.179, 493.500 817.373 C 468.030 822.455, 457.464 823.433, 428 823.437 C 398.462 823.440, 390.186 822.542, 372 817.357 C 358.763 813.583, 336.260 802.177, 328 795.056 C 311.482 780.815, 302.743 767.585, 297.906 749.500 C 295.105 739.027, 294.849 718.564, 297.359 705.725 C 308.591 648.257, 360.294 600.099, 424.749 587.067 C 439.841 584.015, 452.143 583.090, 492.322 581.982 C 531.526 580.902, 554.227 579.593, 561.884 577.970 C 566.284 577.038, 590.043 569.947, 590.917 569.306 C 592.423 568.200, 588.101 567.566, 574.594 566.912 C 547.144 565.584, 536.861 563.050, 523.874 554.416 C 513.900 547.786, 508.902 540.232, 512.011 536.487 C 513.878 534.238, 517.431 534.684, 523.983 537.992 C 539.283 545.715, 558.818 550.997, 572.090 550.999 C 594.283 551.002, 613.235 540.678, 618.919 525.488 C 621.245 519.271, 622.981 509.611, 622.992 502.828 C 623 498.373, 622.837 498.101, 619.504 497.001 C 614.132 495.228, 604.498 485.016, 602.488 478.963 C 600.458 472.851, 600.932 471.344, 605.488 469.440 C 609.290 467.852, 644.047 463.697, 646.301 464.562 C 648.442 465.384, 651 471.656, 651 476.084 C 651 481.406, 648.887 485.360, 642.493 492 L 637.197 497.500 636.746 512 C 636.382 523.710, 635.882 527.558, 634.148 532 C 631.881 537.807, 631.427 541, 632.869 541 C 633.347 541, 638.410 536.163, 644.119 530.250 C 659.646 514.171, 665 502.704, 665 485.529 C 665 475.094, 663.136 466.794, 659.335 460.308 C 657.881 457.827, 650.084 449.113, 642.008 440.942 C 621.546 420.240, 620.055 417.150, 612.968 380.726 C 608.395 357.228, 604.913 345.649, 598.451 332.452 C 590.466 316.146, 582.752 305.567, 568.589 291.500 C 542.568 265.655, 515.471 250.255, 480.536 241.456 C 458.380 235.875, 447.151 234.519, 423.500 234.569 C 401.778 234.615, 391.615 235.758, 374.840 240.041 C 362.395 243.218, 363.721 243.924, 349.847 226.750 C 333.127 206.053, 316.901 188.064, 300.884 172.468 C 287.071 159.018, 269.853 144, 268.246 144 C 267.743 144, 265.479 147.938, 263.216 152.750 M 566.887 163.374 C 550.047 178.856, 515 217.122, 515 220.028 C 515 220.502, 521.291 224.116, 528.979 228.060 C 543.942 235.734, 560.677 246.202, 570.642 254.120 C 574.020 256.804, 577.236 259, 577.789 259 C 578.915 259, 580.171 252.430, 582.569 234 C 583.887 223.876, 584.094 215.797, 583.658 191.500 C 583.091 159.801, 582.489 153.718, 579.872 153.214 C 578.960 153.038, 573.384 157.402, 566.887 163.374 M 791.253 174.250 C 789.968 175.869, 788.570 180.600, 786.479 190.408 C 782.201 210.475, 772.360 221.901, 753.629 228.551 C 743.884 232.011, 741.667 233.736, 741.667 237.862 C 741.667 241.906, 743.639 243.405, 752.500 246.098 C 762.100 249.015, 765.811 251.060, 772.359 257.045 C 779.058 263.167, 783.700 271.978, 787.617 286 C 790.953 297.941, 791.514 299, 794.512 299 C 797.972 299, 799.509 296.014, 801.973 284.509 C 806.747 262.210, 816.129 251.872, 839.087 243.610 C 844.706 241.588, 846.603 240.156, 847.450 237.301 C 848.320 234.370, 845.607 231.749, 839.384 229.511 C 815.433 220.894, 806.337 210.929, 800.988 187.447 C 798.274 175.534, 794.401 170.284, 791.253 174.250 M 877.231 303.550 C 876.004 304.410, 875 306.141, 875 307.397 C 875 309.910, 869.986 320.328, 867.239 323.522 C 864.409 326.813, 859.396 329.979, 852.744 332.679 C 845.850 335.476, 845.038 336.263, 845.015 340.168 C 845.001 342.577, 845.655 343.055, 851.725 345.075 C 863.400 348.960, 871.728 358.862, 874.961 372.700 C 875.629 375.561, 876.782 378.404, 877.524 379.020 C 879.556 380.706, 882.659 378.609, 883.831 374.758 C 884.376 372.966, 885.609 368.882, 886.570 365.682 C 889.508 355.896, 899.506 346.758, 909.681 344.559 C 913.727 343.684, 915.387 341.680, 914.615 338.602 C 914.137 336.696, 912.455 335.585, 906.753 333.410 C 897.103 329.729, 889.288 322.165, 886.173 313.493 C 882.123 302.212, 880.971 300.931, 877.231 303.550 M 746.614 334.250 C 745.826 335.488, 744.477 339.306, 743.615 342.735 C 740.020 357.049, 733.701 364.647, 720.498 370.530 C 714.025 373.414, 711.812 374.902, 711.369 376.666 C 710.408 380.495, 711.540 381.684, 718.287 383.929 C 732.666 388.714, 740.221 397.033, 743.067 411.217 C 744.622 418.967, 746.010 422, 747.999 422 C 750.619 422, 751.684 420.184, 753.582 412.481 C 754.528 408.641, 756.236 403.475, 757.377 401 C 761.294 392.506, 770.804 385.253, 780.378 383.457 C 788.079 382.012, 788.637 375.334, 781.258 372.943 C 765.406 367.807, 758.552 360.386, 753.902 343.323 C 750.657 331.419, 749.407 329.863, 746.614 334.250 M 498.971 397.541 C 495.295 401.257, 490.124 405.250, 487 406.786 C 481.892 409.297, 480.609 409.487, 469 409.446 C 454.387 409.394, 449.124 408.181, 432.695 401.075 C 426.538 398.412, 420.466 395.919, 419.202 395.534 C 414.111 393.985, 412.440 399.974, 415.864 407.500 C 418.626 413.571, 428.809 422.376, 438.305 426.903 C 450.385 432.663, 458.240 434.341, 473 434.316 C 483.771 434.297, 486.607 433.930, 493.500 431.663 C 511.769 425.653, 521.833 411.881, 516.370 400.366 C 514.742 396.936, 508.483 391, 506.493 391 C 505.915 391, 502.530 393.944, 498.971 397.541" stroke="none" fill="#fcfcfc" fill-rule="evenodd"/><path d="M 183.500 1.023 C 163.928 1.862, 151.458 4.126, 133.500 10.100 C 105.570 19.391, 80.313 34.808, 60.037 54.941 C 49.564 65.340, 43.018 73.438, 33.714 87.500 C 19.888 108.398, 12.905 124.511, 5.791 151.935 L 1.753 167.500 0.848 217 C -0.557 293.834, 0.350 842.280, 1.901 853.442 C 10.773 917.319, 50.703 973.677, 107.247 1002.127 C 121.902 1009.501, 150.404 1017.978, 170.754 1021.016 C 181.789 1022.664, 617.561 1024.238, 737.500 1023.064 C 793.600 1022.515, 844.225 1021.596, 850 1021.023 C 864.823 1019.551, 879.621 1016.490, 891.925 1012.351 C 948.282 993.393, 991.686 949.736, 1011.400 892.182 C 1017.627 874.003, 1020.730 857.932, 1021.959 837.500 C 1022.617 826.552, 1022.984 706.338, 1022.990 499.794 L 1023 179.087 1020.014 164.794 C 1015.082 141.178, 1009.839 125.675, 1000.430 106.880 C 971.798 49.685, 920.080 12.215, 856 2.239 C 846.459 0.753, 816.040 0.590, 523 0.449 C 345.625 0.364, 192.850 0.623, 183.500 1.023 M 257.495 114.568 C 243.268 124.222, 227.406 158.308, 216.089 203.541 C 210.273 226.786, 209.849 231.238, 209.093 277 L 208.390 319.500 202.116 329 C 189.817 347.622, 172.875 385.349, 161.474 419.500 C 152.835 445.376, 146.589 473.344, 140.815 512 C 138.706 526.118, 138.500 530.888, 138.506 565.500 C 138.511 606.065, 138.842 610.304, 144.006 636 C 153.769 684.580, 175.367 731.312, 205.938 770 C 216.559 783.441, 243.501 810.142, 257.021 820.627 C 308.046 860.196, 369.043 886.090, 426 892.359 C 454.926 895.543, 490.299 895.183, 515.889 891.444 C 551.488 886.243, 592.086 873.329, 622.733 857.457 C 660.964 837.657, 691.207 815.119, 721.387 783.935 C 786.852 716.293, 824.331 638.960, 837.428 544.500 C 840.896 519.487, 841.468 510.584, 841.472 481.500 C 841.476 456.570, 841.164 449.810, 839.627 441.500 C 837.364 429.265, 834.769 422.071, 831.514 419.013 C 829.434 417.059, 828.553 416.839, 825.876 417.607 C 819.915 419.316, 819.058 421.746, 817.435 441.551 C 812.935 496.453, 798.420 545.680, 774.292 587.872 C 733.794 658.689, 674.125 712.957, 591.147 754.440 C 510.358 794.829, 427.985 809.340, 375.548 792.423 C 353.694 785.372, 335.612 770.787, 327.349 753.545 L 324 746.556 324 729.290 C 324 712.752, 324.131 711.612, 327.098 702.262 C 333.304 682.703, 342.383 668.617, 359.216 652.430 C 375.450 636.817, 392.013 626.891, 414 619.597 C 435.630 612.421, 440.022 611.959, 510 609.497 C 532.613 608.702, 549.262 607.363, 560.255 605.456 C 609.332 596.941, 650.199 572.907, 672.575 539.400 C 679.272 529.373, 686.185 514.905, 689.012 505 C 691.684 495.643, 692.670 478.228, 691.099 468.159 C 688.540 451.757, 683.389 442.941, 665.131 423.716 C 646.871 404.488, 645.107 400.834, 640.122 371.902 C 636.660 351.810, 632.815 338.838, 626.064 324.477 C 619.928 311.422, 614.481 302.171, 606.953 292.017 L 600.844 283.779 604.936 267.639 C 610.983 243.791, 612.137 234.763, 612.724 206.736 C 613.265 180.952, 612.564 171.036, 608.952 153.339 C 605.703 137.420, 602.155 128.197, 597.355 123.188 C 593.169 118.818, 593.007 118.752, 587.664 119.195 C 581.017 119.746, 574.577 122.914, 562.044 131.797 C 546.580 142.757, 511.645 177.932, 494.305 200 C 491.496 203.575, 488.051 207.570, 486.649 208.877 L 484.101 211.254 473.300 209.634 C 446.436 205.604, 404.881 205.045, 386 208.460 C 381.325 209.306, 376.551 209.998, 375.391 209.999 C 373.899 210, 370.305 206.339, 363.110 197.490 C 343.769 173.702, 309.127 139.986, 287.714 124.112 C 271.071 111.773, 264.617 109.735, 257.495 114.568 M 263.501 153.250 C 247.008 189.266, 237.485 230.845, 236.592 270.728 C 236.183 289.007, 236.979 301.170, 240.042 323.476 C 242.971 344.808, 241.857 347.761, 232.556 343.325 C 229.241 341.745, 228.933 341.751, 227.069 343.437 C 220.170 349.681, 200.128 392.415, 189.051 424.500 C 172.755 471.705, 165.115 522.928, 166.306 577 C 167.038 610.229, 170.118 632.663, 177.201 656.358 C 195.050 716.068, 233.627 769.297, 286.095 806.611 C 331.613 838.984, 381.146 858.591, 431.500 864.170 C 438.586 864.956, 454.557 865.491, 470.500 865.477 C 501.854 865.450, 514.490 863.900, 543.611 856.507 C 638.007 832.543, 722.742 762.270, 773.326 666 C 787.547 638.934, 797.245 614.280, 807.057 580.250 C 809.973 570.135, 807.198 572.628, 800.261 586.354 C 772.677 640.941, 730 691.417, 678.061 730.887 C 623.932 772.022, 555.071 804.645, 496.500 816.902 C 470.200 822.406, 459.114 823.478, 428.500 823.480 C 404.016 823.481, 398.993 823.206, 388.500 821.293 C 341.434 812.710, 307.582 786.191, 297.811 750.249 C 294.837 739.308, 294.793 716.541, 297.719 702.900 C 307.534 657.156, 344.184 616.091, 392.500 596.701 C 404.248 591.986, 422.994 586.813, 434.589 585.087 C 444.711 583.580, 470.255 582.208, 501.500 581.492 C 531.400 580.806, 552.635 579.536, 561 577.932 C 568.661 576.463, 590 569.833, 590 568.922 C 590 568.151, 583.428 567.509, 565 566.480 C 550.352 565.662, 540.872 563.527, 531.149 558.856 C 517.925 552.504, 508.595 542.063, 511.704 537.095 C 513.541 534.158, 518.184 534.709, 526.539 538.855 C 547.216 549.116, 569.381 553.116, 586 549.584 C 608.950 544.707, 620.537 531.131, 622.458 506.863 L 623.063 499.226 617.780 496.245 C 608.820 491.188, 601 481.070, 601 474.533 C 601 472.186, 603.222 469.761, 606.416 468.620 C 608.095 468.020, 642.147 464, 645.548 464 C 648.099 464, 651 470.476, 651 476.172 C 651 482.468, 647.981 488.046, 641.244 494.201 L 637.192 497.903 637.072 509.443 C 636.941 521.964, 636.026 528.366, 633.510 534.348 C 630.049 542.577, 632.308 541.852, 642.578 531.437 C 652.905 520.964, 657.457 514.395, 661.744 503.781 C 664.768 496.296, 665.793 483.561, 664.102 474.500 C 662.076 463.645, 658.924 458.956, 641.727 441.219 C 620.462 419.284, 619.602 417.401, 611.495 375 C 603.976 335.674, 587.975 307.672, 558.500 282.259 C 533.971 261.111, 508.536 248.214, 476.500 240.682 C 457.419 236.196, 444.957 234.763, 424.500 234.704 C 404.299 234.645, 397.400 235.414, 376.530 240.053 L 363.561 242.936 361.185 240.718 C 359.878 239.498, 354.266 232.875, 348.713 226 C 333.880 207.637, 320.163 192.236, 305.500 177.482 C 291.625 163.521, 270.530 145, 268.504 145 C 267.830 145, 265.578 148.713, 263.501 153.250 M 569.314 161.764 C 563.821 166.754, 553.471 177.062, 546.313 184.669 C 522.596 209.874, 515.525 218.320, 516.346 220.460 C 516.659 221.275, 522.389 224.686, 529.080 228.040 C 543.958 235.498, 555.516 242.605, 567.939 251.935 C 573.130 255.833, 577.734 258.666, 578.171 258.229 C 578.608 257.792, 579.964 251.150, 581.186 243.468 C 583.110 231.369, 583.413 225.486, 583.454 199.500 C 583.501 168.554, 582.795 157.469, 580.581 154.442 C 579.419 152.852, 578.377 153.529, 569.314 161.764 M 790.538 175.302 C 789.664 176.635, 788.270 181.050, 787.440 185.113 C 784.172 201.100, 780.154 209.593, 772.307 217.097 C 766.238 222.902, 762.453 225.113, 752.709 228.544 C 744.473 231.445, 741 234.442, 741 238.650 C 741 241.548, 745.172 244.315, 752.970 246.589 C 772.439 252.265, 780.610 262.505, 789.004 291.750 C 790.979 298.630, 791.234 299, 794.019 299 C 798.037 299, 799.599 296.261, 802.054 284.912 C 804.790 272.259, 808.713 264.157, 815.284 257.586 C 821.114 251.756, 825.233 249.330, 837.500 244.504 C 851.910 238.834, 851.525 233.543, 836.301 228.051 C 825.284 224.076, 820.398 221.240, 814.636 215.478 C 808.820 209.662, 804.645 201.064, 801.576 188.581 C 798.188 174.800, 794.094 169.874, 790.538 175.302 M 876.750 303.067 C 875.788 303.635, 875 304.865, 874.999 305.800 C 874.998 308.170, 869.383 319.803, 866.266 323.893 C 864.478 326.239, 860.780 328.641, 854.282 331.678 L 844.883 336.070 845.192 339.747 C 845.473 343.098, 845.859 343.527, 849.554 344.592 C 862.333 348.273, 870.629 357.411, 874.099 371.627 C 875.701 378.191, 876.734 380, 878.880 380 C 881.588 380, 883.707 377.087, 885.063 371.500 C 888.129 358.871, 895.084 350.050, 904.726 346.564 C 915.258 342.755, 915 342.923, 915 339.881 C 915 337.234, 914.250 336.646, 905.637 332.540 C 895.058 327.496, 891.012 323.633, 887.314 315.046 C 881.712 302.034, 880.612 300.787, 876.750 303.067 M 746.121 333.773 C 745.599 334.749, 744.421 338.461, 743.502 342.023 C 739.936 355.851, 732.835 365.029, 722.120 369.658 C 711.639 374.186, 711.524 374.276, 711.193 378.227 C 710.895 381.779, 711.019 381.928, 715.193 383.044 C 730.580 387.159, 740.316 397.525, 743.140 412.798 C 744.517 420.248, 745.549 422, 748.560 422 C 751.388 422, 752.134 420.544, 754.473 410.459 C 756.446 401.954, 758.876 397.417, 764.167 392.359 C 769.128 387.617, 772.774 385.589, 779.287 383.949 C 784.411 382.659, 787.353 380.074, 786.826 377.324 C 786.469 375.461, 784.072 374.050, 773.500 369.480 C 763.088 364.980, 758.705 359.104, 754.381 343.848 C 752.923 338.707, 751.286 333.938, 750.743 333.250 C 749.334 331.467, 747.228 331.706, 746.121 333.773 M 497.591 398.376 C 489.571 406.448, 485.588 408.370, 474.393 409.571 C 461.540 410.950, 449.053 407.963, 425.702 397.924 C 416.066 393.782, 414.484 394.318, 414.533 401.705 C 414.613 413.408, 430.396 426.355, 451.704 432.195 C 463.124 435.325, 482.724 435.348, 492.645 432.243 C 500.446 429.801, 508.951 424.600, 513.229 419.654 C 517.169 415.100, 519.138 408.082, 517.817 403.300 C 516.659 399.106, 509.261 391, 506.591 391 C 505.672 391, 501.622 394.319, 497.591 398.376" stroke="none" fill="#141414" fill-rule="evenodd"/></svg>